<?xml version="1.0" standalone="no"?>
<!DOCTYPE svg PUBLIC "-//W3C//DTD SVG 20010904//EN"
 "http://www.w3.org/TR/2001/REC-SVG-20010904/DTD/svg10.dtd">
<svg version="1.0" xmlns="http://www.w3.org/2000/svg"
 width="640.000000pt" height="640.000000pt" viewBox="0 0 640.000000 640.000000"
 preserveAspectRatio="xMidYMid meet">
<metadata>
Created by potrace 1.14, written by Peter Selinger 2001-2017
</metadata>
<g transform="translate(0.000000,640.000000) scale(0.100000,-0.100000)"
fill="#000000" stroke="none">
<path d="M3750 5216 c0 -10 -6 -13 -15 -10 -9 4 -15 1 -15 -7 0 -9 -3 -10 -11
-2 -12 12 -49 6 -49 -9 0 -6 -7 -5 -15 2 -8 7 -15 8 -15 2 0 -9 -21 -12 -77
-14 -13 0 -21 -4 -18 -8 3 -4 -11 -10 -31 -12 -19 -2 -37 0 -40 4 -3 4 -14 4
-24 -2 -13 -7 -21 -7 -26 1 -5 8 -13 4 -26 -12 -11 -13 -17 -19 -14 -12 4 6 2
14 -4 18 -5 3 -10 -1 -10 -9 0 -10 -9 -16 -25 -16 -14 0 -25 -5 -25 -11 0 -6
-9 -9 -20 -6 -11 3 -23 1 -26 -4 -3 -5 -21 -9 -40 -9 -26 0 -33 -3 -28 -12 6
-10 4 -10 -8 0 -13 10 -17 10 -22 -4 -5 -12 -9 -14 -20 -5 -10 9 -16 8 -26 -4
-7 -9 -20 -13 -29 -10 -9 2 -23 0 -31 -5 -9 -5 -19 -5 -27 2 -10 8 -13 6 -13
-5 0 -9 -5 -19 -12 -23 -6 -4 -8 -3 -4 4 3 6 2 13 -4 17 -5 3 -10 1 -10 -5 0
-7 -6 -10 -14 -7 -7 3 -22 0 -32 -7 -11 -7 -36 -12 -56 -12 -20 1 -34 -2 -32
-6 3 -4 0 -9 -5 -9 -6 -1 -17 -2 -23 -3 -7 -1 -12 -8 -10 -14 2 -10 -3 -10
-18 -2 -16 8 -20 8 -18 -2 2 -7 -5 -12 -14 -12 -10 1 -18 -5 -18 -13 0 -13 -3
-13 -15 -3 -12 10 -16 9 -20 -2 -4 -10 -20 -14 -46 -14 -26 1 -38 -3 -35 -11
3 -7 -3 -10 -14 -8 -13 2 -21 -4 -26 -17 -6 -19 -7 -20 -16 -4 -8 15 -11 15
-24 1 -9 -8 -21 -12 -27 -8 -6 4 -8 0 -4 -10 3 -10 2 -17 -3 -17 -6 0 -10 5
-10 12 0 6 -9 1 -20 -12 -11 -13 -20 -17 -20 -10 0 9 -3 10 -13 1 -10 -8 -17
-7 -26 2 -10 9 -11 8 -5 -7 6 -14 4 -17 -6 -11 -8 5 -20 -1 -32 -16 -11 -13
-17 -19 -14 -12 4 6 2 14 -4 18 -5 3 -10 -1 -10 -9 0 -10 -9 -16 -25 -16 -14
0 -25 -4 -25 -10 0 -5 -16 -12 -35 -16 -19 -3 -33 -10 -30 -14 3 -5 -5 -6 -17
-2 -17 4 -20 2 -15 -12 5 -14 3 -15 -13 -6 -16 9 -18 8 -13 -6 4 -12 3 -15 -5
-10 -7 4 -12 2 -12 -6 0 -11 -2 -10 -9 0 -6 11 -10 10 -15 -3 -3 -10 -12 -15
-21 -11 -8 3 -15 1 -15 -5 0 -6 -5 -7 -12 -3 -8 5 -9 2 -5 -10 4 -10 3 -15 -3
-11 -6 3 -10 0 -10 -7 0 -9 -3 -9 -10 2 -8 13 -10 12 -11 -5 -1 -11 -1 -24 0
-28 1 -5 -3 -6 -9 -2 -6 3 -8 11 -5 16 4 5 1 9 -4 9 -6 0 -11 -5 -11 -11 0
-22 -33 -38 -54 -27 -10 5 -16 6 -13 1 7 -11 -28 -44 -37 -35 -9 8 -35 -31
-29 -42 4 -5 1 -6 -6 -2 -9 6 -9 11 0 22 9 10 9 14 0 14 -6 0 -14 -7 -17 -15
-4 -8 -10 -12 -15 -9 -5 3 -9 -2 -9 -10 0 -9 -5 -16 -11 -16 -5 0 -7 -5 -3
-11 5 -8 1 -8 -14 0 -17 9 -22 8 -27 -8 -3 -10 -13 -18 -23 -17 -10 0 -16 -5
-14 -13 2 -11 0 -12 -11 -3 -11 9 -18 8 -31 -6 -9 -10 -13 -21 -10 -25 3 -3
-5 -11 -18 -18 -22 -12 -22 -11 -8 7 14 19 14 19 -7 1 -12 -11 -26 -16 -31
-13 -6 3 -20 -7 -33 -23 -13 -16 -27 -27 -32 -24 -5 3 -12 2 -16 -3 -3 -5 -17
-18 -31 -29 l-25 -20 18 22 c14 16 15 23 6 29 -7 4 -10 3 -5 -4 3 -6 -3 -16
-14 -22 -11 -6 -19 -14 -19 -18 3 -19 -2 -23 -16 -12 -12 10 -15 10 -15 -4 0
-9 -4 -16 -10 -16 -21 0 -25 -2 -43 -17 -14 -13 -15 -19 -5 -26 9 -6 7 -7 -6
-3 -11 4 -23 1 -28 -6 -6 -11 -8 -11 -8 0 0 10 -5 10 -20 2 -11 -6 -25 -8 -30
-5 -6 3 -10 1 -10 -5 0 -6 -5 -8 -12 -4 -7 4 -8 3 -4 -4 6 -11 -5 -16 -26 -13
-4 0 -5 -6 -2 -13 7 -19 -36 -68 -54 -61 -10 4 -12 0 -8 -11 4 -10 2 -14 -6
-11 -17 6 -58 -32 -52 -48 3 -7 0 -16 -7 -21 -8 -5 -10 -3 -4 7 7 11 6 12 -7
2 -8 -7 -18 -10 -21 -6 -4 3 -7 1 -7 -5 0 -7 5 -12 11 -12 5 0 8 -4 4 -10 -3
-5 -12 -7 -20 -4 -10 4 -13 0 -10 -15 3 -18 1 -20 -16 -11 -15 8 -19 8 -17 -2
2 -7 -2 -12 -7 -11 -6 1 -12 -8 -12 -19 -1 -12 -7 -25 -14 -29 -7 -4 -9 -14
-6 -22 4 -11 1 -14 -8 -10 -8 3 -12 10 -8 17 3 6 2 7 -2 3 -14 -12 -15 -38 -2
-30 7 3 0 -5 -15 -20 -19 -17 -26 -32 -22 -44 6 -16 4 -15 -10 2 -10 13 -14
15 -11 4 4 -10 -3 -20 -17 -28 -13 -6 -15 -9 -5 -7 21 7 22 -1 2 -21 -8 -8
-13 -19 -10 -24 4 -5 -2 -9 -12 -9 -15 0 -16 -2 -3 -10 13 -8 12 -10 -3 -10
-10 0 -15 -5 -12 -10 4 -6 1 -9 -7 -8 -7 2 -12 -4 -10 -14 1 -9 -2 -19 -8 -23
-8 -5 -7 -11 1 -21 9 -11 8 -14 -5 -14 -12 0 -15 -8 -13 -39 2 -22 0 -38 -4
-35 -4 2 -9 -3 -13 -11 -3 -8 0 -15 7 -15 8 0 7 -3 -2 -9 -17 -11 -23 -39 -10
-47 6 -4 6 -11 -1 -19 -8 -10 -8 -15 0 -20 8 -5 8 -11 -1 -21 -9 -11 -9 -14 0
-14 9 0 9 -5 1 -20 -8 -15 -8 -20 1 -20 8 0 9 -4 0 -13 -7 -10 -7 -17 0 -24 7
-7 8 -13 0 -17 -5 -4 -8 -13 -4 -21 3 -8 1 -15 -4 -15 -6 0 -9 -13 -8 -30 1
-16 -1 -34 -5 -41 -4 -6 -4 -26 0 -45 5 -20 4 -37 -2 -40 -5 -3 -4 -11 3 -20
6 -8 8 -14 3 -14 -5 0 -9 -16 -9 -35 0 -19 4 -35 9 -35 4 0 5 -7 2 -16 -4 -9
-1 -24 6 -32 10 -12 10 -14 1 -8 -9 5 -11 2 -7 -8 3 -9 10 -16 15 -16 6 0 5
-8 -1 -19 -7 -13 -7 -22 0 -26 7 -4 7 -12 0 -25 -7 -13 -7 -21 0 -25 8 -5 7
-11 -1 -21 -9 -11 -9 -14 0 -14 9 0 9 -5 1 -20 -8 -14 -8 -20 0 -20 8 0 8 -6
0 -20 -8 -14 -8 -20 0 -20 8 0 8 -6 0 -20 -8 -14 -8 -20 0 -20 7 0 8 -7 3 -17
-10 -22 -10 -44 0 -60 4 -6 2 -15 -4 -19 -8 -5 -8 -9 1 -14 7 -4 13 -28 14
-54 0 -25 4 -46 8 -46 4 0 5 -9 3 -20 -2 -11 1 -23 7 -26 7 -5 8 -2 4 7 -4 8
-1 6 8 -4 8 -11 13 -27 11 -38 -2 -10 1 -19 6 -19 6 0 6 -8 -1 -20 -6 -11 -7
-20 -3 -20 9 0 8 -88 -1 -97 -3 -4 -1 -12 5 -20 6 -7 8 -13 3 -13 -5 0 -7 -36
-4 -81 3 -44 1 -84 -4 -90 -6 -6 -5 -9 2 -9 9 0 10 -5 3 -18 -7 -13 -6 -23 1
-30 9 -9 9 -12 0 -12 -9 0 -8 -7 4 -25 9 -13 14 -30 11 -37 -2 -7 0 -21 5 -31
5 -11 5 -17 -1 -17 -7 0 -7 -9 -1 -26 7 -16 7 -23 0 -19 -7 4 -7 -2 0 -19 6
-17 6 -26 -3 -30 -9 -3 -8 -5 1 -5 7 -1 10 -5 7 -11 -3 -5 -1 -10 5 -10 6 0 4
-7 -5 -16 -12 -12 -13 -19 -5 -24 9 -6 9 -13 1 -28 -8 -14 -8 -23 -1 -27 8 -5
8 -11 0 -20 -8 -9 -8 -14 0 -17 6 -2 12 -13 13 -25 0 -12 5 -19 9 -17 4 3 8 0
8 -6 0 -17 26 -40 36 -32 5 4 6 3 2 -2 -4 -5 -3 -17 3 -28 9 -16 13 -17 27 -6
9 8 13 8 9 1 -11 -18 4 -45 21 -38 9 3 13 3 9 -1 -4 -4 7 -15 23 -25 17 -11
30 -23 30 -29 0 -5 6 -7 14 -4 8 3 17 0 22 -7 5 -8 3 -10 -6 -4 -9 5 -11 4 -6
-3 5 -9 13 -9 28 -1 11 6 18 7 15 1 -4 -5 5 -20 20 -33 14 -13 23 -19 19 -12
-3 6 -2 14 4 18 5 3 10 -1 10 -9 0 -9 6 -16 13 -16 7 0 23 -9 35 -20 20 -19
22 -19 22 -3 0 15 2 15 9 3 6 -8 8 -17 6 -20 -2 -4 12 -6 32 -5 20 0 37 -5 40
-12 4 -9 10 -10 23 -3 13 7 21 7 25 -1 4 -6 13 -8 21 -5 7 3 20 -5 29 -17 8
-12 15 -16 15 -10 0 7 7 10 15 7 8 -4 13 -9 11 -13 -3 -4 8 -6 22 -5 15 1 33
-4 41 -10 11 -8 13 -8 8 1 -4 6 -3 15 3 18 6 4 10 3 9 -2 -1 -4 -1 -14 0 -22
1 -11 4 -11 18 0 9 8 14 9 10 3 -4 -7 3 -15 16 -19 33 -10 87 -11 87 -2 0 4 9
3 20 -3 12 -6 20 -7 20 -1 0 5 9 7 19 4 13 -3 18 -11 14 -21 -4 -14 -3 -14 5
-3 9 12 13 12 26 2 13 -11 16 -11 16 0 0 10 3 10 12 1 7 -7 17 -8 30 -1 13 7
18 6 18 -3 0 -8 3 -9 10 -2 12 12 82 6 75 -7 -3 -4 4 -6 15 -4 12 2 23 -2 27
-10 3 -8 9 -12 14 -9 5 3 9 0 9 -7 0 -10 3 -10 11 -2 7 7 22 8 45 1 19 -5 39
-6 44 -3 6 4 13 -1 16 -10 5 -12 9 -13 20 -4 11 9 14 8 14 -1 0 -9 3 -10 13
-1 8 6 17 8 21 4 11 -11 46 -10 46 1 0 6 4 5 9 -3 10 -16 151 -32 151 -18 0 5
6 4 14 -2 8 -7 17 -8 20 -3 3 5 23 6 46 2 25 -4 40 -4 40 3 0 5 6 4 14 -2 8
-7 17 -8 20 -3 3 5 23 6 46 2 25 -4 40 -4 40 3 0 5 6 4 14 -2 8 -7 16 -8 19
-4 3 4 59 6 126 3 67 -3 121 -1 121 4 0 5 6 3 13 -3 8 -6 17 -8 20 -4 4 3 29
6 57 6 37 -1 50 3 50 14 0 8 5 11 10 8 6 -4 7 -11 4 -17 -4 -5 5 -2 20 7 16
11 26 13 26 6 0 -9 5 -9 20 -1 15 8 20 8 20 -2 0 -9 3 -9 12 0 7 7 20 12 29
12 10 0 20 6 22 13 3 6 6 7 6 1 1 -7 19 -8 54 -4 28 4 53 8 55 9 1 0 7 1 13 1
5 0 8 4 5 9 -4 5 3 7 14 4 12 -3 20 0 20 7 0 9 4 9 17 -1 14 -12 16 -12 8 0
-6 11 -1 13 23 9 17 -2 29 -1 26 4 -3 4 1 8 9 8 8 0 27 12 42 26 22 20 30 23
36 12 6 -9 9 -7 9 10 0 12 5 22 11 22 5 0 8 -4 5 -8 -3 -5 1 -9 8 -9 7 0 13 5
12 11 -1 6 4 13 9 15 6 3 16 11 23 18 8 7 17 11 22 8 11 -7 33 22 26 33 -3 6
2 16 11 23 12 10 14 10 9 2 -4 -7 -2 -13 3 -13 6 0 11 6 11 14 0 7 8 20 18 27
16 13 16 12 3 -6 -14 -19 -14 -19 5 -2 16 15 17 19 4 28 -12 9 -11 10 7 6 13
-3 24 1 27 10 4 9 2 11 -6 7 -7 -4 -8 -3 -4 5 6 9 11 9 22 0 12 -9 13 -9 9 3
-3 8 2 21 12 29 17 13 17 13 3 -6 -14 -19 -14 -19 3 -6 13 11 15 17 6 28 -10
11 -8 12 6 7 13 -5 16 -4 11 4 -4 7 -2 12 4 12 6 0 9 4 6 8 -3 5 6 15 19 22
14 7 25 22 25 32 0 10 5 18 11 18 11 0 39 25 39 35 0 3 -4 3 -10 0 -5 -3 -10
-1 -10 4 0 6 5 12 10 12 6 1 14 2 19 3 15 2 26 16 13 16 -7 0 -12 5 -12 11 0
5 4 8 9 5 5 -3 14 1 21 10 7 8 19 13 27 10 11 -4 11 -1 3 14 -9 16 -8 20 5 20
9 0 13 5 10 10 -6 9 8 14 28 11 4 -1 3 8 -4 20 -8 15 -8 19 0 15 6 -4 11 -2
11 4 0 6 5 8 13 4 8 -6 8 -3 -1 9 -12 14 -11 16 7 12 18 -3 20 -1 11 15 -11
21 2 36 22 24 7 -4 8 -3 4 4 -4 7 -1 12 6 12 9 0 9 3 -2 10 -14 9 -7 14 13 11
5 -1 6 3 2 8 -3 6 4 15 15 21 11 6 18 15 15 20 -3 5 5 19 18 32 13 13 23 32
21 41 -1 9 2 15 7 11 5 -3 9 0 9 6 0 6 4 9 9 6 5 -4 7 2 5 12 -4 11 5 25 25
40 18 13 28 28 25 36 -3 8 0 17 7 22 8 4 10 3 5 -4 -4 -7 -3 -12 3 -12 5 0 11
10 13 23 2 12 9 21 17 19 12 -3 12 0 2 12 -11 13 -9 15 9 11 18 -3 20 -2 10
10 -13 15 -9 18 25 16 11 0 14 2 8 5 -7 3 -13 10 -13 15 0 5 6 8 13 7 6 -2 11
3 9 10 -1 6 2 12 8 12 5 0 6 7 3 17 -4 11 -3 14 5 9 7 -4 15 0 19 11 9 25 39
53 48 45 4 -4 3 2 -3 14 -10 19 -9 21 14 18 21 -2 23 0 13 12 -10 12 -10 15 1
12 8 -2 14 2 15 9 0 16 15 29 15 13 0 -10 3 -10 15 0 8 7 15 18 15 25 0 7 14
18 31 24 21 7 28 15 23 23 -5 9 -2 8 10 -1 14 -12 17 -12 14 0 -2 8 7 15 22
17 14 2 27 7 30 11 3 3 17 12 31 18 20 9 30 9 39 0 10 -9 11 -7 5 10 -5 19 -3
22 11 16 10 -4 15 -2 11 4 -3 5 0 10 8 10 8 0 12 -4 8 -9 -3 -6 9 -2 27 7 23
12 35 13 45 5 10 -8 15 -8 21 1 4 8 3 9 -4 5 -7 -4 -12 -2 -12 3 0 6 7 11 16
11 8 0 13 4 10 8 -4 7 22 13 71 15 12 1 19 5 17 9 -3 4 0 8 6 8 6 0 8 5 4 13
-5 7 0 6 11 -3 17 -14 18 -13 12 4 -6 16 -5 17 7 7 10 -9 16 -9 21 -1 4 6 13
9 21 6 8 -3 14 -1 14 5 0 6 5 7 10 4 6 -3 10 -1 10 6 0 9 3 9 14 0 11 -9 17
-8 29 4 17 16 32 21 23 7 -3 -5 1 -9 8 -9 7 0 13 7 12 16 0 9 5 15 13 13 7 -2
22 5 32 14 10 9 23 13 28 9 6 -3 11 -2 11 4 0 6 7 7 17 4 11 -4 14 -3 9 5 -7
11 6 17 27 13 5 -1 6 3 2 9 -3 5 -1 10 4 10 6 0 10 5 9 12 -2 7 6 12 17 12 11
0 25 6 30 13 9 12 38 22 77 26 10 1 26 9 36 18 29 25 46 34 37 20 -4 -8 2 -7
17 3 14 9 28 13 31 9 4 -3 7 0 7 7 0 7 3 10 7 7 3 -4 14 0 24 9 10 9 25 14 34
10 9 -3 14 -2 11 3 -9 14 20 21 33 8 9 -9 11 -8 6 5 -5 13 -2 15 16 11 15 -4
20 -3 15 5 -5 8 0 12 13 12 12 0 21 7 21 16 0 8 4 12 10 9 13 -8 52 19 42 30
-4 4 1 5 11 2 9 -4 17 -2 17 4 0 6 4 7 10 4 6 -4 7 1 3 12 -6 16 -5 16 10 5
14 -12 16 -11 12 7 -3 14 0 19 7 15 7 -5 9 -1 5 9 -3 9 -3 16 1 16 4 -1 16 -1
27 0 15 1 17 3 6 10 -10 6 -10 10 -1 13 7 2 14 16 15 30 2 15 6 32 10 37 3 6
1 11 -5 11 -7 0 -8 6 -2 16 10 17 -7 84 -22 84 -4 0 -3 6 3 14 9 11 8 15 -4
20 -13 4 -14 10 -5 26 9 16 8 22 -5 26 -8 3 -12 10 -9 15 3 5 -1 9 -8 9 -11 0
-10 2 0 9 11 7 11 9 -1 14 -8 3 -18 25 -22 49 -4 23 -9 52 -11 63 -2 11 -5 26
-6 33 -1 6 -6 12 -12 12 -6 0 -4 5 4 10 12 8 12 10 1 10 -9 0 -10 4 -4 13 11
14 11 27 0 45 -5 7 -4 12 3 12 6 0 8 5 4 12 -10 16 -13 48 -4 48 8 0 6 37 -2
45 -3 3 -2 22 2 41 4 19 4 36 0 39 -5 3 -5 18 0 34 4 15 4 34 0 41 -5 7 -4 24
1 38 5 13 6 29 2 35 -10 15 -10 41 -1 47 4 3 1 18 -7 33 -10 19 -10 25 -2 20
7 -4 7 0 -2 10 -7 9 -18 14 -23 11 -6 -4 -8 3 -4 17 7 24 7 24 -10 4 -16 -20
-16 -20 -9 3 4 14 2 22 -6 22 -9 0 -8 4 1 15 7 8 8 15 3 15 -5 0 -9 10 -10 22
-1 11 -6 24 -11 27 -5 3 -8 13 -7 22 2 9 -2 23 -7 30 -8 11 -9 10 -4 -4 4 -11
2 -16 -5 -11 -6 3 -9 15 -6 25 3 10 0 22 -5 26 -7 4 -8 1 -3 -8 8 -12 6 -12
-8 0 -18 14 -24 36 -7 26 6 -3 7 1 4 9 -3 9 -11 16 -16 16 -6 0 -8 9 -5 19 3
14 1 18 -9 14 -8 -3 -18 6 -25 21 -7 14 -16 23 -22 19 -5 -3 -8 0 -5 8 5 14
-1 23 -42 66 -17 18 -19 22 -5 13 15 -11 17 -11 8 -1 -6 7 -10 19 -9 25 2 6 1
8 -1 4 -3 -5 -12 -8 -21 -8 -15 0 -15 2 -2 10 12 7 12 10 1 10 -8 0 -11 6 -7
17 4 10 4 14 0 10 -4 -4 -14 2 -22 14 -10 14 -21 19 -36 15 -21 -5 -21 -5 -1
11 17 13 17 15 2 10 -13 -5 -20 0 -27 19 -8 21 -13 24 -24 15 -12 -10 -14 -8
-9 11 3 17 2 19 -5 9 -8 -11 -11 -9 -17 8 -3 12 -10 19 -15 16 -4 -3 -10 2
-13 9 -3 8 -16 20 -29 27 l-23 11 23 -21 c12 -12 22 -25 22 -28 0 -4 -11 4
-25 17 -14 13 -25 30 -25 38 0 8 -6 12 -14 9 -8 -3 -26 6 -40 20 -15 15 -32
23 -41 19 -9 -3 -14 -2 -11 3 3 5 -2 15 -11 22 -14 12 -16 12 -9 -1 4 -9 1 -8
-7 3 -8 9 -17 17 -21 17 -3 0 -25 18 -47 40 -23 22 -46 40 -53 40 -6 0 4 -10
21 -22 18 -13 35 -30 38 -38 4 -8 -6 -3 -22 11 -41 38 -78 60 -88 52 -4 -5 -5
0 -2 9 7 20 -10 34 -36 30 -10 -2 -16 2 -15 10 2 8 -4 12 -14 10 -10 -2 -18 2
-18 8 0 5 -9 10 -19 10 -11 0 -23 4 -26 10 -4 6 1 7 12 4 14 -5 15 -4 4 4 -8
6 -23 9 -33 7 -10 -2 -18 -1 -18 3 0 14 -48 29 -64 20 -10 -5 -16 -5 -16 0 0
6 -7 13 -16 16 -10 4 -13 2 -8 -7 5 -7 1 -6 -10 2 -20 17 -56 22 -56 9 0 -5
-9 -4 -20 2 -15 8 -20 8 -20 -1 0 -7 -9 -4 -22 7 -12 10 -18 13 -14 7 5 -9 2
-11 -8 -7 -9 3 -16 14 -17 23 0 10 -2 11 -6 4 -3 -10 -9 -9 -20 3 -10 10 -18
12 -22 5 -5 -7 -16 -6 -34 4 -15 8 -25 10 -22 6 3 -5 -4 -7 -15 -4 -11 3 -20
11 -20 19 0 8 -6 11 -17 7 -10 -4 -14 -2 -10 4 3 5 1 10 -6 10 -21 1 -42 8
-48 17 -4 4 -16 3 -28 -3 -16 -9 -21 -9 -21 1 0 7 -3 8 -9 3 -6 -6 -46 -8 -90
-5 -45 3 -81 1 -81 -4 0 -5 -6 -3 -14 3 -8 7 -16 8 -19 4 -3 -4 -42 -6 -86 -3
-45 3 -81 1 -81 -4 0 -5 -6 -3 -14 3 -10 8 -16 9 -21 1 -4 -7 -12 -7 -26 0
-14 8 -19 7 -19 -1 0 -8 -4 -9 -13 0 -8 6 -17 8 -21 4 -10 -11 -36 -12 -36 -2
0 5 -10 5 -23 0 -14 -5 -30 -5 -40 0 -13 8 -17 6 -17 -5z m1304 -214 c3 -5 -1
-9 -9 -9 -8 0 -12 4 -9 9 3 4 7 8 9 8 2 0 6 -4 9 -8z m511 -372 c3 -6 -1 -7
-9 -4 -18 7 -21 14 -7 14 6 0 13 -4 16 -10z m12 -26 c-3 -3 -12 -4 -19 -1 -8
3 -5 6 6 6 11 1 17 -2 13 -5z m-3843 -129 c-4 -8 -11 -15 -16 -15 -6 0 -5 6 2
15 7 8 14 15 16 15 2 0 1 -7 -2 -15z m-94 -55 c0 -5 -5 -10 -11 -10 -5 0 -7 5
-4 10 3 6 8 10 11 10 2 0 4 -4 4 -10z m-206 -128 c3 -5 -1 -9 -9 -9 -8 0 -12
4 -9 9 3 4 7 8 9 8 2 0 6 -4 9 -8z m-254 -172 c0 -5 -10 -15 -22 -21 l-23 -12
20 21 c23 24 25 25 25 12z m-120 -124 c0 -2 -8 -10 -17 -17 -16 -13 -17 -12
-4 4 13 16 21 21 21 13z m4457 -1133 c-14 -14 -19 -15 -29 -4 -11 10 -10 11 3
6 10 -4 20 -2 24 4 3 6 9 11 13 11 3 0 -1 -8 -11 -17z m-4667 -217 c0 -2 -7
-7 -16 -10 -8 -3 -12 -2 -9 4 6 10 25 14 25 6z m40 -6 c0 -5 -5 -10 -11 -10
-5 0 -7 5 -4 10 3 6 8 10 11 10 2 0 4 -4 4 -10z m26 -66 c3 -16 2 -26 -1 -23
-3 4 -8 19 -11 35 -3 16 -2 26 1 23 3 -4 8 -19 11 -35z m3652 -139 c-3 -3 -9
2 -12 12 -6 14 -5 15 5 6 7 -7 10 -15 7 -18z m-286 -347 c-7 -7 -12 -8 -12 -2
0 14 12 26 19 19 2 -3 -1 -11 -7 -17z m-382 -532 c0 -2 -8 -10 -17 -17 -16
-13 -17 -12 -4 4 13 16 21 21 21 13z m-210 -242 c0 -8 -19 -13 -24 -6 -3 5 1
9 9 9 8 0 15 -2 15 -3z"/>
<path d="M5320 4836 c0 -2 8 -10 18 -17 15 -13 16 -12 3 4 -13 16 -21 21 -21
13z"/>
<path d="M5710 4439 c0 -5 5 -7 10 -4 6 3 10 8 10 11 0 2 -4 4 -10 4 -5 0 -10
-5 -10 -11z"/>
<path d="M1217 4183 c-4 -3 -7 -11 -7 -17 0 -6 5 -5 12 2 6 6 9 14 7 17 -3 3
-9 2 -12 -2z"/>
<path d="M4467 2309 c7 -7 15 -10 18 -7 3 3 -2 9 -12 12 -14 6 -15 5 -6 -5z"/>
<path d="M1027 1429 c7 -7 15 -10 18 -7 3 3 -2 9 -12 12 -14 6 -15 5 -6 -5z"/>
<path d="M1980 1150 c-9 -6 -10 -10 -3 -10 6 0 15 5 18 10 8 12 4 12 -15 0z"/>
</g>
</svg>
